<?xml version="1.0" encoding="utf-8"?>
<!-- Generator: Adobe Illustrator 24.1.2, SVG Export Plug-In . SVG Version: 6.00 Build 0)  -->
<svg version="1.1" id="Layer_1" xmlns="http://www.w3.org/2000/svg" xmlns:xlink="http://www.w3.org/1999/xlink" x="0px" y="0px"
	 viewBox="0 0 164 82" style="enable-background:new 0 0 164 82;" xml:space="preserve">
<style type="text/css">
	.st0{fill:#FFFFFF;}
</style>
<g>
	<path class="st0" d="M22.3,33.9c-0.8-0.8-1.8-1.6-2.9-2.2c-1.5-0.9-3.4-1.4-5.7-1.4c-1.8,0-3.5,0.3-5.2,1c-1.6,0.7-3.1,1.7-4.4,3
		c-1.3,1.3-2.3,3-3,4.9C0.4,41.2,0,43.4,0,45.9V46c0,2.5,0.4,4.7,1.1,6.6c0.8,1.9,1.8,3.6,3.1,4.9c1.3,1.3,2.8,2.3,4.4,3
		c1.6,0.7,3.4,1,5.1,1c2.3,0,4.2-0.5,5.7-1.4c1.1-0.7,2.1-1.5,2.9-2.4V61h9.2V20.4h-9.2L22.3,33.9L22.3,33.9z M21.9,42.8
		c0.4,0.9,0.5,2,0.5,3.1V46c0,1.1-0.2,2.2-0.5,3.1c-0.4,0.9-0.8,1.8-1.4,2.4c-0.6,0.7-1.3,1.2-2.1,1.5c-0.8,0.4-1.6,0.5-2.5,0.5
		c-0.9,0-1.8-0.2-2.5-0.5c-0.8-0.4-1.5-0.9-2.1-1.5c-0.6-0.7-1.1-1.5-1.5-2.4c-0.4-0.9-0.5-2-0.5-3.1v-0.1c0-1.2,0.2-2.2,0.5-3.2
		c0.4-0.9,0.8-1.7,1.5-2.4c0.6-0.7,1.3-1.2,2.1-1.5c0.8-0.4,1.6-0.5,2.5-0.5c0.9,0,1.8,0.2,2.5,0.5c0.8,0.4,1.5,0.9,2.1,1.5
		C21.1,41,21.5,41.8,21.9,42.8L21.9,42.8z"/>
	<path class="st0" d="M53.1,30.4c-1.1,0-2.1,0.1-3,0.4c-0.9,0.3-1.7,0.6-2.4,1.1c-0.7,0.5-1.4,1-2,1.6c-0.3,0.3-0.5,0.5-0.7,0.8
		v-3.3h-9.2V61H45V44.3c0-1.8,0.4-3.2,1.3-4.1c0.8-0.9,2-1.3,3.4-1.3c1.5,0,2.6,0.4,3.3,1.3c0.8,0.9,1.2,2.3,1.2,4.1V61h9.2V41.7
		c0-3.5-0.9-6.2-2.7-8.3C58.9,31.4,56.3,30.4,53.1,30.4L53.1,30.4z"/>
	<path class="st0" d="M88.8,50.3l-0.3,0.3c-1,0.9-2,1.6-3,2.2c-1,0.5-2.1,0.8-3.4,0.8c-1,0-2-0.2-2.8-0.6c-0.8-0.4-1.6-0.9-2.2-1.6
		c-0.6-0.7-1.1-1.5-1.4-2.4c-0.3-0.9-0.5-1.9-0.5-3v-0.1c0-1,0.2-2,0.5-2.9c0.3-0.9,0.8-1.7,1.4-2.4c0.6-0.7,1.3-1.2,2.1-1.6
		c0.8-0.4,1.7-0.6,2.6-0.6c1.4,0,2.6,0.3,3.5,0.8c1,0.6,1.9,1.3,2.8,2.3l0.4,0.4l5.7-6.1l-0.3-0.3c-1.4-1.6-3.1-2.8-4.9-3.7
		c-1.9-0.9-4.2-1.4-7.1-1.4c-2.3,0-4.4,0.4-6.4,1.2c-1.9,0.8-3.6,2-5,3.4c-1.4,1.4-2.5,3.1-3.3,5c-0.8,1.9-1.2,3.9-1.2,6.1v0.1
		c0,2.1,0.4,4.1,1.2,6c0.8,1.9,1.9,3.5,3.3,4.9c1.4,1.4,3,2.5,5,3.3c1.9,0.8,4,1.2,6.2,1.2c3,0,5.4-0.5,7.3-1.6c1.8-1,3.5-2.3,5-3.9
		l0.3-0.3L88.8,50.3L88.8,50.3z"/>
</g>
<g>
	<path class="st0" d="M108.1,37.1v3.6h6.3v2.5h-6.3v4.9h-3.1V34.6h10.2v2.5H108.1z"/>
	<path class="st0" d="M118.8,47.6c-0.9-0.5-1.6-1.1-2-1.9s-0.7-1.7-0.7-2.8c0-1,0.2-2,0.7-2.8s1.2-1.4,2-1.9c0.9-0.5,1.9-0.7,3-0.7
		c1.1,0,2.1,0.2,2.9,0.7c0.9,0.5,1.5,1.1,2,1.9s0.7,1.7,0.7,2.8c0,1-0.2,2-0.7,2.8s-1.2,1.4-2,1.9s-1.8,0.7-2.9,0.7
		C120.7,48.3,119.7,48,118.8,47.6z M123.7,45c0.5-0.5,0.7-1.2,0.7-2.1c0-0.9-0.2-1.6-0.7-2.1c-0.5-0.5-1.1-0.8-1.9-0.8
		c-0.8,0-1.4,0.3-1.9,0.8c-0.5,0.5-0.8,1.2-0.8,2.1c0,0.9,0.3,1.6,0.8,2.1c0.5,0.5,1.1,0.8,1.9,0.8C122.5,45.8,123.2,45.5,123.7,45z
		"/>
	<path class="st0" d="M131.5,47.6c-0.9-0.5-1.6-1.1-2-1.9s-0.7-1.7-0.7-2.8c0-1,0.2-2,0.7-2.8s1.2-1.4,2-1.9c0.9-0.5,1.9-0.7,3-0.7
		c1.1,0,2.1,0.2,2.9,0.7c0.9,0.5,1.5,1.1,2,1.9s0.7,1.7,0.7,2.8c0,1-0.2,2-0.7,2.8s-1.2,1.4-2,1.9s-1.8,0.7-2.9,0.7
		C133.4,48.3,132.4,48,131.5,47.6z M136.4,45c0.5-0.5,0.7-1.2,0.7-2.1c0-0.9-0.2-1.6-0.7-2.1c-0.5-0.5-1.1-0.8-1.9-0.8
		c-0.8,0-1.4,0.3-1.9,0.8c-0.5,0.5-0.8,1.2-0.8,2.1c0,0.9,0.3,1.6,0.8,2.1c0.5,0.5,1.1,0.8,1.9,0.8C135.2,45.8,135.9,45.5,136.4,45z
		"/>
	<path class="st0" d="M152.8,33.7v14.4h-2.9v-1.2c-0.7,0.9-1.8,1.4-3.3,1.4c-1,0-1.9-0.2-2.7-0.7c-0.8-0.4-1.4-1.1-1.9-1.9
		s-0.7-1.8-0.7-2.8c0-1.1,0.2-2,0.7-2.8c0.5-0.8,1.1-1.4,1.9-1.9c0.8-0.4,1.7-0.7,2.7-0.7c1.3,0,2.4,0.4,3.1,1.3v-5.1H152.8z
		 M149.1,45c0.5-0.5,0.8-1.2,0.8-2.1c0-0.9-0.3-1.6-0.8-2.1c-0.5-0.5-1.1-0.8-1.9-0.8c-0.8,0-1.4,0.3-1.9,0.8
		c-0.5,0.5-0.8,1.2-0.8,2.1c0,0.9,0.3,1.6,0.8,2.1c0.5,0.5,1.1,0.8,1.9,0.8C147.9,45.8,148.6,45.5,149.1,45z"/>
	<path class="st0" d="M156.5,47.9c-0.8-0.2-1.5-0.5-2-0.8l1-2.2c0.5,0.3,1,0.5,1.7,0.7c0.7,0.2,1.3,0.3,1.9,0.3
		c1.3,0,1.9-0.3,1.9-0.9c0-0.3-0.2-0.5-0.5-0.6c-0.3-0.1-0.9-0.2-1.6-0.3c-0.9-0.1-1.6-0.3-2.1-0.4c-0.6-0.2-1-0.5-1.4-0.9
		c-0.4-0.4-0.6-1-0.6-1.8c0-0.7,0.2-1.2,0.6-1.8c0.4-0.5,0.9-0.9,1.7-1.2c0.7-0.3,1.6-0.4,2.6-0.4c0.7,0,1.5,0.1,2.2,0.2
		c0.7,0.2,1.3,0.4,1.8,0.7l-1,2.1c-0.9-0.5-1.9-0.8-3-0.8c-0.6,0-1.1,0.1-1.5,0.3c-0.3,0.2-0.5,0.4-0.5,0.7c0,0.3,0.2,0.5,0.5,0.7
		c0.3,0.1,0.9,0.3,1.7,0.4c0.9,0.1,1.5,0.3,2.1,0.5c0.5,0.2,1,0.5,1.4,0.9c0.4,0.4,0.6,1,0.6,1.8c0,0.6-0.2,1.2-0.6,1.7
		c-0.4,0.5-1,0.9-1.7,1.2c-0.7,0.3-1.6,0.4-2.6,0.4C158.2,48.3,157.4,48.2,156.5,47.9z"/>
</g>
</svg>
